<svg width="200" height="69" viewBox="0 0 200 69" fill="none" xmlns="http://www.w3.org/2000/svg">
<path fill-rule="evenodd" clip-rule="evenodd" d="M115.236 44.7428C115.236 46.5336 114.785 47.9265 113.884 48.9214C112.965 49.9162 111.622 50.4137 109.855 50.4137H106.124V68.3488H99.3915V20.2414H108.179C110.45 20.2414 112.19 20.7389 113.397 21.7338C114.623 22.7468 115.236 24.1034 115.236 25.8038V44.7428ZM108.503 43.4947V26.6992C108.503 26.3374 108.359 26.0118 108.071 25.7224C107.782 25.433 107.548 25.2882 107.368 25.2882H106.124V45.4483H107.233C108.08 45.4483 108.503 44.7971 108.503 43.4947ZM134.676 68.3217H122.103V20.2143H134.676V25.6138H128.809V40.2116H134.352V45.6111H128.809V62.9493H134.676V68.3217ZM156.793 62.5423C156.793 66.8293 154.171 68.9729 148.925 68.9729C146.005 68.9729 143.95 68.4573 142.76 67.4263C141.553 66.3952 140.949 64.6768 140.949 62.2709V25.4782C140.949 23.5608 141.625 22.0956 142.977 21.0826C144.329 20.0877 146.384 19.5903 149.141 19.5903C154.243 19.5903 156.793 21.6162 156.793 25.6681V36.1144H150.061V26.3193C150.061 25.2521 149.655 24.7184 148.844 24.7184C148.069 24.7184 147.681 25.2521 147.681 26.3193V61.8097C147.681 61.8097 147.6 63.3291 148.871 63.3291C150.169 63.3291 150.061 61.7283 150.061 61.7283V48.7314H156.793V62.5423ZM177.423 25.6138H173.178V68.3217H166.473V25.6138H162.147V20.2143H177.423V25.6138ZM200 68.3488H193.592L192.619 56.2202H188.563L187.589 68.3488H181.1L185.237 20.2414H195.89L200 68.3488ZM192.429 51.499L190.78 24.827H190.347L188.698 51.499H192.429ZM92.4969 62.3795C92.4969 64.2969 91.8119 65.8797 90.442 67.1278C89.072 68.3759 87.0983 69 84.5206 69C81.943 69 79.9873 68.4392 78.6534 67.3177C77.3285 66.2053 76.6526 64.6044 76.6526 62.5151V48.7043H83.385V61.9453C83.385 62.7955 83.7365 63.2206 84.4395 63.2206C84.8541 63.2206 85.1786 63.094 85.4129 62.8407C85.6652 62.6056 85.7914 62.28 85.7914 61.8639V51.1734C85.7914 50.3865 85.7103 49.8439 85.5751 49.5454C85.449 49.256 85.0524 48.6862 84.3855 47.836L79.3834 41.5682C78.1938 40.1392 77.4457 39.0539 77.1393 38.3122C76.8148 37.5887 76.6526 36.5576 76.6526 35.219V25.7495C76.6526 21.6072 79.3203 19.536 84.6558 19.536C89.8832 19.536 92.4969 21.6705 92.4969 25.9394V37.2812H85.7914V26.5906C85.7914 25.5234 85.4129 24.9898 84.6558 24.9898C83.8086 24.9898 83.385 25.5234 83.385 26.5906V33.8081C83.385 35.0562 83.4481 35.8612 83.5743 36.223C83.7185 36.5667 84.1692 37.1907 84.9262 38.0952L90.0634 44.1459C90.9827 45.2674 91.6226 46.2623 91.9831 47.1305C92.3256 47.9988 92.4969 49.1203 92.4969 50.4951V62.3795Z" fill="#EB0029"/>
<path d="M59.6728 13.0783C52.9674 12.7527 46.4513 13.1054 40.0162 16.2257C31.6885 20.35 25.1994 25.7495 20.1703 31.5289C18.6833 27.2147 17.5206 22.4392 16.7636 17.1211C14.222 14.4621 1.75747 1.7908 0 0C0.67595 5.99646 2.64972 13.0783 2.64972 13.0783C2.64972 13.0783 5.65094 26.048 14.249 39.4247C4.81277 54.0224 3.10937 68.2945 3.10937 68.2945H8.03029C8.08436 63.8989 10.68 53.4255 16.5202 42.7621C17.5837 44.2635 18.7283 45.7558 19.954 47.2391C15.5739 58.6079 15.0061 68.2945 15.0061 68.2945H19.927C19.6025 62.6508 20.4137 56.3016 22.3875 49.9795C23.9557 51.6889 25.632 53.317 27.4436 54.8907C26.3891 62.6779 26.9298 68.2945 26.9298 68.2945H31.1748C30.7692 64.4687 30.6611 60.9143 30.7422 57.5769C38.3939 63.2749 47.8843 67.4534 59.6728 68.2945C63.4582 68.2945 65.486 50.061 65.486 40.4286C65.486 30.7963 65.486 13.0783 59.6728 13.0783ZM21.4411 34.9206C28.5792 25.044 38.7995 16.3614 52.7511 14.0551C38.0154 18.8577 29.0118 29.114 23.496 39.4247C22.775 37.9957 22.09 36.4943 21.4411 34.9206ZM25.1994 42.5722C30.6611 30.6064 40.2325 19.7259 53.6974 14.8148C38.2047 22.6563 31.5263 36.3315 28.7414 47.9174C27.4976 46.2623 26.308 44.4715 25.1994 42.5722ZM59.6188 66.8293C58.7265 67.9689 43.5041 65.1742 31.2559 51.0649C35.0953 21.3268 57.9965 13.3767 59.6728 14.3264C61.2411 15.2489 64.5126 16.7412 63.9989 40.4286C63.5393 61.0228 60.8896 65.5541 59.6188 66.8293Z" fill="#0055B8"/>
</svg>
